<svg xmlns="http://www.w3.org/2000/svg" width="221" height="200.5" viewBox="0 0 221 200.5"><defs><style>.a,.c{fill:#fff;}.a{font-size:50px;font-family:TimesNewRomanPS-BoldMT, Times New Roman;font-weight:700;}.b,.d,.e{fill:none;stroke:#fff;}.b{stroke-width:5px;}.d{stroke-width:2px;}.f,.g{stroke:none;}.g{fill:#fff;}</style></defs><g transform="translate(-1029.5 -260)"><text class="a" transform="translate(1058 289)"><tspan x="0" y="45">M</tspan></text><g transform="translate(-17 101)"><line class="b" y2="186" transform="translate(1150.5 173.5)"/><line class="b" x2="206" transform="translate(1046.5 264.5)"/></g><g class="c" transform="translate(1124 260)"><path class="f" d="M 17.11689949035645 14.5 L 0.8830999732017517 14.5 L 9 0.971833348274231 L 17.11689949035645 14.5 Z"/><path class="g" d="M 9 1.943650245666504 L 1.766189575195313 14 L 16.23381042480469 14 L 9 1.943650245666504 M 9 0 L 18 15 L 0 15 L 9 0 Z"/></g><g class="c" transform="translate(1250.5 356.5) rotate(90)"><path class="f" d="M 17.11689949035645 14.5 L 0.8830999732017517 14.5 L 9 0.971833348274231 L 17.11689949035645 14.5 Z"/><path class="g" d="M 9 1.943650245666504 L 1.766189575195313 14 L 16.23381042480469 14 L 9 1.943650245666504 M 9 0 L 18 15 L 0 15 L 9 0 Z"/></g><g transform="translate(-2 -0.5)"><line class="d" x2="34" transform="translate(1167.5 300.6)"/><line class="e" x1="17.6" y1="19.4" transform="translate(1167.9 301.1)"/><line class="d" y1="18" x2="16.5" transform="translate(1168.9 319.5)"/><line class="d" x1="34" transform="translate(1167.9 337.5)"/></g><text class="a" transform="translate(1063 387)"><tspan x="0" y="45">G</tspan></text><g class="c" transform="translate(1161 396)"><path class="f" d="M 43.0809211730957 33.5 L 0.9190800189971924 33.5 L 22 0.9203963875770569 L 43.0809211730957 33.5 Z"/><path class="g" d="M 22 1.840766906738281 L 1.838142395019531 33 L 42.16185760498047 33 L 22 1.840766906738281 M 22 0 L 44 34 L 0 34 L 22 0 Z"/></g></g></svg>