<?xml version="1.0" standalone="no"?>
<!DOCTYPE svg PUBLIC "-//W3C//DTD SVG 20010904//EN"
 "http://www.w3.org/TR/2001/REC-SVG-20010904/DTD/svg10.dtd">
<svg version="1.0" xmlns="http://www.w3.org/2000/svg"
 width="1280.000000pt" height="1097.000000pt" viewBox="0 0 1280.000000 1097.000000"
 preserveAspectRatio="xMidYMid meet">
<metadata>
Created by potrace 1.15, written by Peter Selinger 2001-2017
</metadata>
<g transform="translate(0.000000,1097.000000) scale(0.100000,-0.100000)"
fill="#330000" stroke="none">
<path d="M5895 10964 c-988 -41 -1711 -136 -2279 -299 -439 -126 -699 -270
-788 -437 l-23 -43 -3 -2237 c-1 -1383 1 -2238 7 -2238 6 0 6 -12 0 -32 -5
-20 -9 -471 -9 -1098 l0 -1066 -288 -27 c-158 -15 -377 -37 -487 -47 -110 -11
-432 -42 -715 -70 -283 -28 -605 -59 -715 -70 -110 -10 -283 -27 -385 -36
-102 -10 -191 -22 -197 -27 -10 -7 -13 -186 -13 -833 l0 -824 24 -10 c14 -5
116 -31 228 -59 112 -28 603 -150 1093 -271 1999 -497 2647 -657 4455 -1106
l544 -136 81 20 c73 18 557 141 1150 292 127 32 383 97 570 145 187 47 472
120 633 161 758 193 898 228 1197 304 176 45 442 112 590 150 149 38 413 105
588 149 174 45 460 117 635 162 174 44 459 116 632 160 173 44 330 85 348 90
l32 11 0 803 c0 630 -3 805 -12 813 -7 5 -110 19 -228 31 -118 11 -466 46
-772 76 -307 30 -809 80 -1115 110 -307 30 -610 60 -674 67 l-116 11 2 3301
c2 3240 2 3302 -17 3353 -132 356 -1168 642 -2677 739 -218 14 -1103 26 -1296
18z m-2884 -1132 c301 -202 976 -379 1794 -471 547 -62 834 -76 1540 -76 633
0 779 5 1240 46 862 75 1570 229 1960 426 113 57 166 93 234 157 55 52 58 48
12 -13 -71 -95 -310 -226 -564 -309 -516 -170 -1180 -277 -2077 -334 -273 -17
-1344 -18 -1610 0 -755 49 -1280 122 -1764 243 -488 123 -822 287 -911 449 -4
8 16 -8 46 -36 30 -28 74 -65 100 -82z m6 -2228 c355 -237 1170 -427 2178
-508 431 -35 591 -41 1150 -41 557 0 731 7 1150 41 615 50 1148 136 1567 255
158 45 380 125 473 171 100 50 221 136 270 191 36 40 45 46 40 27 -35 -120
-170 -232 -401 -334 -478 -210 -1280 -354 -2339 -418 -280 -17 -1243 -17
-1520 0 -922 56 -1579 159 -2100 329 -380 123 -591 263 -640 423 -6 19 4 12
39 -27 26 -29 86 -78 133 -109z m-4 -2268 c366 -240 1186 -429 2212 -510 693
-55 1552 -55 2245 0 635 50 1227 148 1640 271 336 99 618 242 706 358 35 46
41 38 16 -18 -139 -314 -1044 -582 -2317 -687 -428 -35 -671 -44 -1170 -44
-714 0 -1276 36 -1845 119 -971 142 -1572 375 -1655 644 -5 17 8 8 51 -35 33
-33 85 -77 117 -98z"/>
</g>
</svg>
